<svg xmlns="http://www.w3.org/2000/svg" viewBox="0 0 820 820">
<rect width="100%" height="100%" fill="white" />
<text x="60" y="30" font-size="16" font-weight="bold">Shared edge-exit N2 geometry -- revision 3</text>
<rect x="60.0" y="60.0" width="700.0" height="700.0" fill="none" stroke="black" stroke-width="2" /><circle cx="526.7" cy="293.3" r="46.7" fill="rgba(0,200,0,0.15)" stroke="green" stroke-width="2" /><text x="526.7" y="354.0" font-size="14" text-anchor="middle" fill="green">EXIT</text><rect x="571.5" y="338.2" width="9.3" height="9.3" fill="red" /><text x="576.2" y="356.8" font-size="9" text-anchor="middle" fill="red">post1(z=0.20)</text><rect x="472.5" y="239.2" width="9.3" height="9.3" fill="red" /><text x="477.2" y="257.8" font-size="9" text-anchor="middle" fill="red">post2(z=0.20)</text><circle cx="592.7" cy="339.5" r="18.7" fill="blue" fill-opacity="0.4" stroke="blue" stroke-width="2" /><text x="592.7" y="311.5" font-size="11" text-anchor="middle" fill="blue">robot_a_park</text><circle cx="480.5" cy="227.3" r="18.7" fill="orange" fill-opacity="0.4" stroke="orange" stroke-width="2" /><text x="480.5" y="199.3" font-size="11" text-anchor="middle" fill="orange">robot_b_park</text><line x1="456.7" y1="153.3" x2="526.7" y2="293.3" stroke="blue" stroke-width="1.5" stroke-dasharray="4,3" /><circle cx="456.7" cy="153.3" r="17.3" fill="blue" stroke="black" stroke-width="1" /><text x="456.7" y="181.3" font-size="11" text-anchor="middle" fill="blue">A start</text><line x1="316.7" y1="503.3" x2="433.3" y2="573.3" stroke="orange" stroke-width="1.5" stroke-dasharray="4,3" /><line x1="433.3" y1="573.3" x2="526.7" y2="386.7" stroke="orange" stroke-width="1.5" stroke-dasharray="4,3" /><line x1="526.7" y1="386.7" x2="526.7" y2="293.3" stroke="orange" stroke-width="1.5" stroke-dasharray="4,3" /><circle cx="316.7" cy="503.3" r="17.3" fill="orange" stroke="black" stroke-width="1" /><text x="316.7" y="531.3" font-size="11" text-anchor="middle" fill="orange">B start</text><circle cx="316.7" cy="503.3" r="5.6" fill="orange" /><text x="330.7" y="503.3" font-size="9" fill="orange">wp0</text><circle cx="433.3" cy="573.3" r="5.6" fill="orange" /><text x="447.3" y="573.3" font-size="9" fill="orange">wp1</text><circle cx="526.7" cy="386.7" r="5.6" fill="orange" /><text x="540.7" y="386.7" font-size="9" fill="orange">wp2</text><circle cx="526.7" cy="293.3" r="5.6" fill="orange" /><text x="540.7" y="293.3" font-size="9" fill="orange">wp3</text><line x1="526.7" y1="293.3" x2="592.7" y2="339.5" stroke="blue" stroke-width="1" stroke-dasharray="2,2" /><line x1="526.7" y1="293.3" x2="480.5" y2="227.3" stroke="orange" stroke-width="1" stroke-dasharray="2,2" />
</svg>